<?xml version="1.0" encoding="UTF-8"?>
<svg width="56px" height="56px" viewBox="0 0 56 56" version="1.1" xmlns="http://www.w3.org/2000/svg" xmlns:xlink="http://www.w3.org/1999/xlink">
    <title>thumbs-up copy</title>
    <defs>
        <filter id="filter-1">
            <feColorMatrix in="SourceGraphic" type="matrix" values="0 0 0 0 0.466667 0 0 0 0 0.552941 0 0 0 0 0.662745 0 0 0 1.000000 0"></feColorMatrix>
        </filter>
        <path d="M48.1643704,17.8181887 C50.4374963,17.7928184 52.6072478,18.7525655 54.0989203,20.4432204 C55.5905928,22.1338753 56.2536767,24.3848514 55.91195,26.6037425 L52.3484322,49.5084939 C51.769106,53.2734787 48.4638359,56.0423932 44.6294583,56 L15.4963397,56 C14.069941,56 12.9136164,54.8598798 12.9136164,53.4540764 L12.9136164,25.4543221 C12.9136164,25.0981695 12.9894509,24.7459806 13.1362173,24.4205242 L23.4671104,1.51163428 C23.881641,0.592407401 24.8065697,0 25.8272328,0 C31.5328275,0 36.1581259,4.55851528 36.1581259,10.1817288 L36.1581259,17.8180544 L48.1643704,17.8181887 Z M18.079063,50.9089719 L44.6586542,50.9089719 C45.946512,50.9231559 47.0482688,50.0001844 47.2420178,48.7410509 L50.8055858,25.8359737 C50.9192979,25.0976143 50.69827,24.3472889 50.2010458,23.7837373 C49.7038216,23.2201856 48.9805711,22.90027 48.1936164,22.9088899 L33.5754027,22.9088899 C32.149004,22.9088899 30.9926794,21.7692611 30.9926794,20.3634577 L30.9926794,10.1817288 C30.9926794,7.90976513 29.4825875,5.98540975 27.397652,5.33040726 L18.079063,25.9944996 L18.079063,50.9089719 Z M12.9136164,27.9997543 L7.74816984,27.9997543 C6.32177116,27.9997543 5.16544656,29.1393831 5.16544656,30.5451865 L5.16544656,48.363212 C5.16544656,49.7690154 6.32177116,50.9086442 7.74816984,50.9086442 L12.9136164,50.9086442 L12.9136164,27.9997543 Z M15.4963397,55.9995086 L7.74816984,55.9995086 C3.4689738,55.9995086 0,52.5806222 0,48.363212 L0,30.5451865 C0,26.3277764 3.4689738,22.9088899 7.74816984,22.9088899 L15.4963397,22.9088899 C16.9227384,22.9088899 18.079063,24.0485187 18.079063,25.4543221 L18.079063,53.4540764 C18.079063,54.8598798 16.9227384,55.9995086 15.4963397,55.9995086 Z" id="path-2"></path>
    </defs>
    <g id="Page-1" stroke="none" stroke-width="1" fill="none" fill-rule="evenodd">
        <g id="thumbs-up-copy" transform="translate(-217.000000, -758.000000)" filter="url(#filter-1)">
            <g transform="translate(217.000000, 758.000000)">
                <mask id="mask-3" fill="white">
                    <use xlink:href="#path-2"></use>
                </mask>
                <use id="Shape" fill="#000000" fill-rule="nonzero" xlink:href="#path-2"></use>
                <g id="Group" mask="url(#mask-3)">
                    <g transform="translate(-2.582723, -2.545432)" id="🎨Color">
                        <rect id="Rectangle" fill="#000000" x="0" y="0" width="61.9853587" height="61.0903731"></rect>
                    </g>
                </g>
            </g>
        </g>
    </g>
</svg>