<?xml version="1.0" encoding="UTF-8"?>
<svg width="396px" height="63px" viewBox="0 0 396 63" version="1.1" xmlns="http://www.w3.org/2000/svg" xmlns:xlink="http://www.w3.org/1999/xlink">
    <title>Illustrations</title>
    <defs>
        <path d="M17,0 C26.2863,0 34,7.63877 34,17 C34,26.36123 26.3612,34 17,34 C7.6388,34 0,26.36123 0,17 C0,7.63877 7.6388,0 17,0 Z M17,1.4978 C8.4626,1.4978 1.4978,8.46256 1.4978,17 C1.4978,25.53744 8.4626,32.42731 17,32.42731 C25.4626,32.42731 32.5022,25.53744 32.5022,17 C32.5022,8.46256 25.5374,1.4978 17,1.4978 Z" id="path-1"></path>
        <path d="M1,0 C1.6,0 2,0.3 2,0.75 L2,0.75 L2,8.25 C2,8.7 1.6,9 1,9 C0.4,9 0,8.625 0,8.25 L0,8.25 L0,0.75 C0,0.3 0.4,0 1,0 Z" id="path-3"></path>
        <path d="M1,0 C1.6,0 2,0.3 2,0.75 L2,0.75 L2,8.25 C2,8.625 1.6,9 1,9 C0.4,9 0,8.7 0,8.25 L0,8.25 L0,0.75 C0,0.3 0.4,0 1,0 Z" id="path-5"></path>
        <path d="M3.621,0.40291 C3.8341,0.0305 4.2604,-0.11846 4.6157,0.10498 C4.9709,0.32843 5.113,0.77532 4.8999,1.14772 L4.8999,1.14772 L1.3475,7.62759 C1.2054,7.85104 0.9212,7.99999779 0.708,7.99999779 C0.5659,7.99999779 0.4949,7.99999779 0.3528,7.92552 C-0.0024,7.70207 -0.0735,7.25519 0.0686,6.88278 L0.0686,6.88278 L3.621,0.40291 Z" id="path-7"></path>
        <path d="M6.8698,0.0671 C7.2474,-0.07186 7.7005,-0.00238 7.9271,0.34501 C8.0781,0.6924 8.0026,1.10926 7.625,1.31769 L7.625,1.31769 L1.1302,4.86105 C1.0547,4.93052 0.9037,4.99999969 0.7526,4.99999969 C0.4505,4.99999969 0.224,4.86105 0.0729,4.65261 C-0.0781,4.30523 -0.0026,3.88836 0.375,3.67993 L0.375,3.67993 L6.8698,0.0671 Z" id="path-9"></path>
        <path d="M8.25,0 L8.33636777,0.00786203459 C8.68047337,0.0699307101 9,0.489514615 9,0.90909 C9,1.36364 8.7,1.81818 8.25,1.81818 L8.25,1.81818 L0.75,2 L0.75,2 L0.663632226,1.99213797 C0.319526627,1.93006929 0,1.51048538 0,1.09091 C0,0.63636 0.3,0.18182 0.75,0.18182 L0.75,0.18182 L8.25,0 L8.25,0 Z" id="path-11"></path>
        <path d="M0.104,0.39538 C0.3255,0.02993 0.7684,-0.11625 1.1375,0.10302 L1.1375,0.10302 L7.6334,3.6113 C8.0025,3.83057 8.0763,4.26911 7.9287,4.63455 C7.7811,4.85382 7.5596,4.99999672 7.2644,4.99999672 C7.1167,4.99999672 7.0429,4.99999672 6.8953,4.92691 L6.8953,4.92691 L0.3993,1.41863 C0.0302,1.19936 -0.1174,0.76083 0.104,0.39538 Z" id="path-13"></path>
        <path d="M0.3238,0.12774 C0.6693,-0.09935 1.0838,-0.02365 1.291,0.35482 L1.291,0.35482 L4.8834,6.86458 C5.0907,7.24305 5.0216,7.69722 4.6762,7.92431 C4.6071,8.00000223 4.4689,8.00000223 4.3307,8.00000223 C4.0544,8.00000223 3.8472,7.84861 3.709,7.62153 L3.709,7.62153 L0.1166,1.18746 C-0.0907,0.80899 -0.0216,0.35482 0.3238,0.12774 Z" id="path-15"></path>
        <path d="M3.569,0.39554 C3.7902,0.02995 4.2326,-0.11629 4.6012,0.10307 C4.9698,0.32242 5.1173,0.76114 4.8961,1.12674 L4.8961,1.12674 L1.431,7.634401 C1.2835,7.85376 1.0624,8.00000411 0.7674,8.00000411 C0.62,8.00000411 0.5463,8.00000411 0.3988,7.92688 C0.0302,7.707521 -0.1173,7.268802 0.1039,6.9032 L0.1039,6.9032 L3.569,0.39554 Z" id="path-17"></path>
        <path d="M6.8008,0.13556 C7.1842,-0.10544 7.6443,-0.0251 7.8744,0.37657 C8.1044,0.77824 8.0277,1.26025 7.5676,1.50126 L7.5676,1.50126 L1.1263,5.83933 C1.0496,5.91967 0.8962,5.99999979 0.7429,5.99999979 C0.5128,5.99999979 0.2828,5.83933 0.1294,5.59833 C-0.1006,5.19665 -0.024,4.71464 0.3595,4.47364 L0.3595,4.47364 L6.8008,0.13556 Z" id="path-19"></path>
        <path d="M8.2447,0.01218 C8.6223,-0.06734 9,0.25072 9,0.72779 C9,1.12536 8.6979,1.52292 8.3957,1.60244 L8.3957,1.60244 L0.8424,2.00000136 L0.8424,2.00000136 L0.7669,2.00000136 C0.3892,2.00000136 0.0116,1.60244 0.0116,1.20487 C-0.064,0.80731 0.2382,0.40974 0.6914,0.40974 L0.6914,0.40974 L8.2447,0.01218 Z" id="path-21"></path>
        <path d="M0.156,0.38816 C0.3027,-0.00268 0.7427,-0.08084 1.1094,0.07549 L1.1094,0.07549 L7.6359,3.593 C8.0025,3.74933 8.0758,4.21833 7.9292,4.60917 C7.7825,4.84367 7.5625,5.0000018 7.2692,5.0000018 C7.1225,5.0000018 6.9759,5.0000018 6.9025,4.92183 L6.9025,4.92183 L0.376,1.40433 C0.0094,1.24799 -0.1373,0.77899 0.156,0.38816 Z" id="path-23"></path>
        <path d="M0.3731,0.1302 C0.7711,-0.10127 1.2488,-0.02411 1.4876,0.36166 L1.4876,0.36166 L5.8657,6.76552 C6.1045,7.1513 6.0249,7.61423 5.6269,7.84569 C5.4677,7.92285 5.3085,7.99999848 5.1493,7.99999848 C4.9104,7.99999848 4.6716,7.92285 4.5124,7.69138 L4.5124,7.69138 L0.1343,1.21037 C-0.1045,0.82459 -0.0249,0.36166 0.3731,0.1302 Z" id="path-25"></path>
        <path d="M21.0494,0 C32.3531,0 41.5494,9.15335 41.5494,20.4029 C41.5494,31.3851 32.7851,40.36402 21.8533,40.786 L21.8533,40.786 L21.8533,59.4766 L24.5668,59.4766 C24.9874,59.4766 25.3273,59.81708 25.3273,60.2383 C25.3273,60.65952 24.9874,61 24.5668,61 L24.5668,61 L17.5319,61 C17.1114,61 16.7714,60.65952 16.7714,60.2383 C16.7714,59.81708 17.1114,59.4766 17.5319,59.4766 L17.5319,59.4766 L20.3322,59.4766 L20.3322,40.78752 C9.3593,40.40972 0.5494,31.41328 0.5494,20.4029 C0.5494,9.15335 9.7457,0 21.0494,0 Z M21.0494,1.5234 C10.5838,1.5234 2.0704,9.99275 2.0704,20.4029 C2.0704,30.57388 10.1982,38.88708 20.3307,39.26488 L20.3307,39.26488 L20.3307,31.55343 L12.8365,24.28681 C12.5345,23.99356 12.5269,23.5114 12.819,23.20977 C13.111,22.90661 13.5924,22.90052 13.8943,23.19225 L13.8943,23.19225 L20.3314,29.43286 L20.3314,14.44412 C20.3314,14.0229 20.6714,13.68242 21.092,13.68242 C21.5125,13.68242 21.8525,14.0229 21.8525,14.44412 L21.8525,14.44412 L21.8525,23.0917 L28.2037,16.93412 C28.5056,16.64239 28.987,16.65 29.279,16.95164 C29.5711,17.25327 29.5635,17.73543 29.2616,18.02868 L29.2616,18.02868 L21.8533,25.21152 L21.8533,39.2626 C31.947,38.84138 40.0283,30.54494 40.0283,20.4029 C40.0283,9.99275 31.515,1.5234 21.0494,1.5234 Z" id="path-27"></path>
        <path d="M21.1648,0 C21.3775,0 21.5805,0.09226 21.7228,0.25315 C21.773,0.3111 26.8547,6.1061 31.8578,13.79363 C38.6158,24.17964 42.0281,32.90035 41.9999746,39.71253 C41.9757,45.42365 39.7685,50.7825 35.7854,54.80316 C31.8241,58.80095 26.5769,61 21.003,61 L21.003,61 L20.9101,61 C15.3011,60.974837 10.0366,58.72775 6.0873,54.67278 C2.138,50.6178 -0.0236,45.23913 5.54112326e-06,39.52876 C0.0289,32.87443 3.5138,24.23301 10.3601,13.84395 C15.4262,6.15566 20.5566,0.31186 20.6076,0.25315 C20.7491,0.09226 20.9521,0 21.1648,0 Z M21.164,1.92226 C17.909,5.76755 1.5568,25.77402 1.49791787,39.53562 C1.4759,44.83881 3.4839,49.83319 7.1508,53.59917 C10.8193,57.365925 15.707,59.452125 20.9161,59.475 L20.9161,59.475 L21.003,59.475 C26.1799,59.475 31.052,57.433025 34.7309,53.71965 C38.4301,49.98569 40.48,45.00885 40.5020649,39.70566 C40.5616,25.61009 24.3966,5.75077 21.164,1.92226 Z" id="path-29"></path>
        <path d="M25.0274,0.15968 C25.3056,-0.05323 25.6944,-0.05323 25.9726,0.15968 C34.8531,6.95653 35.7235,16.10682 35.7039,19.59737 C39.6738,17.61335 44.575,17.01086 50.3356,17.81101 C50.7166,17.86386 51,18.18584 51,18.56588 C51,32.19754 39.9804,43.33491 26.2778,43.74212 L26.2778,43.74212 L26.2778,60.237681 C26.2778,60.658669 25.9322,60.9999975 25.506,60.9999975 C25.0798,60.9999975 24.7343,60.658669 24.7343,60.237681 L24.7343,60.237681 L24.7343,43.74249 C11.0256,43.34161 0,32.202 0,18.56588 C0,18.18584 0.2834,17.86386 0.6644,17.81101 C6.4254,17.01063 11.3265,17.61298 15.2961,19.59695 C15.2766,16.10607 16.1472,6.95625 25.0274,0.15968 Z M17.8479,23.11001 C13.8835,19.71122 8.4043,18.4088 1.553,19.23328 C1.9045,31.72258 12.1018,41.82292 24.7343,42.21711 L24.7343,42.21711 L24.7343,39.32045 C24.7263,39.27653 24.7222,39.23149 24.7222,39.18533 C24.7222,39.15146 24.7226,39.05952 24.7267,38.91584 C24.6612,37.26204 24.0194,28.40158 17.8479,23.11001 Z M49.447,19.23328 C42.5968,18.4088 37.1161,19.71122 33.1521,23.11001 C26.981,28.4012 26.3392,37.26092 26.2733,38.91621 C26.27576,39.002196 26.276888,39.0696888 26.2773968,39.1172412 L26.2778,42.21674 C38.9046,41.8166 49.0955,31.71885 49.447,19.23328 Z M25.5,1.73569 C16.7049,8.80556 16.7645,18.54457 16.8726,20.49396 C17.5702,20.93794 18.2382,21.42513 18.8687,21.96654 C22.7819,25.32625 24.6287,29.88452 25.5,33.46906 C26.3713,29.88452 28.2181,25.32625 32.1313,21.96654 C32.7615,21.42546 33.4293,20.93854 34.1266,20.49476 C34.2308,18.5435 34.2741,8.78937 25.5,1.73569 Z" id="path-31"></path>
        <path d="M18.50257,0 C18.59925,0.00093 18.6951,0.02071 18.78572,0.05859 C18.82911,0.07674 18.86286,0.10904 18.90157,0.13473 C18.94138,0.16093 18.98522,0.17834 19.02063,0.21296 C19.06539,0.2569 23.55326,4.65952 27.97656,10.68021 C33.9643,18.83018 37,25.9183 37,31.74763 C37,42.04892 29.10476,50.47262 19.25104,50.88273 L19.25104,50.88273 L19.25104,60.2375 C19.25104,60.658588 18.91496,61 18.49963,61 C18.08431,61 17.74823,60.658588 17.74823,60.2375 L17.74823,60.2375 L17.74823,50.88268 C7.89524,50.47258 0,42.04892 0,31.74763 C0,17.36624 17.25292,0.89839 17.98745,0.2044 C18.02028,0.17345 18.06083,0.15898 18.09724,0.13506 C18.13806,0.10797 18.17456,0.07591 18.22052,0.0572 C18.29399,0.02727 18.37104,0.01587 18.44873,0.01042 C18.46643,0.00917 18.48156,0 18.49963,0 L18.49963,0 L18.50257,0 Z M1.89328,28.03872 C1.64388,29.28826 1.50281,30.52927 1.50281,31.74763 C1.50281,41.20739 8.72387,48.94813 17.74823,49.35768 L17.74823,49.35768 L17.74823,43.0967 L1.89328,28.03872 Z M35.08425,28.06008 L19.25104,43.0967 L19.25104,49.35768 C28.27622,48.94813 35.49719,41.20739 35.49719,31.74763 C35.49719,30.54617 35.34677,29.31115 35.08425,28.06008 L35.08425,28.06008 Z M6.96515,16.19214 C4.97456,19.40843 3.25565,22.88249 2.30191,26.33799 L2.30191,26.33799 L17.74823,41.00792 L17.74823,26.4334 L6.96515,16.19214 Z M29.9389,16.28317 L19.25104,26.4334 L19.25104,41.00797 L34.66241,26.37182 C33.68619,22.97599 31.94463,19.51244 29.9389,16.28317 L29.9389,16.28317 Z M19.25104,2.62095 L19.25104,24.34466 L29.10935,14.98212 C25.49671,9.46018 21.30786,4.7935 19.25104,2.62095 L19.25104,2.62095 Z M17.74823,2.58261 C15.67793,4.71034 11.4301,9.33188 7.79416,14.89062 L7.79416,14.89062 L17.74823,24.34462 L17.74823,2.58261 Z" id="path-33"></path>
        <path d="M23.86871,0 C29.03978,0 33.29236,3.78865 33.54963,8.62525 C33.55745,8.77822 33.56154,8.93081 33.56154,9.08415 C33.56154,10.23982 33.32885,11.36706 32.86866,12.44195 C34.42829,14.31533 35.28163,16.62666 35.28163,19.00457 C35.28163,20.41307 34.98676,21.78603 34.40409,23.09354 C34.57908,23.30598 34.74699,23.52402 34.90671,23.74618 C36.3822,25.79945 37.16219,28.19606 37.16219,30.67682 C37.16219,37.28087 31.62811,42.68422 24.67309,43.07655 L24.67309,43.07655 L24.70488,52.468085 L47.5586,52.468085 L47.54,48.4246 C43.1542,48.07323 39.69803,44.61819 39.69803,40.4151 C39.69803,38.69506 40.28926,37.01804 41.3727,35.64058 C41.03948,34.8376 40.87082,33.99759 40.87082,33.13626 C40.87082,31.6425 41.38647,30.19024 42.33215,28.99493 C42.07414,28.33781 41.94346,27.65226 41.94346,26.95026 C41.94346,23.66764 44.7835,20.99688 48.2747,20.99688 C51.6519,20.99688 54.4294,23.47914 54.5981,26.64844 C54.6036,26.7468 54.6062,26.84816 54.6062,26.95026 C54.6062,27.65189 54.4756,28.33743 54.2175,28.99493 C55.1632,30.19024 55.6789,31.6425 55.6789,33.13626 C55.6789,33.99684 55.5102,34.83723 55.177,35.64058 C55.2503,35.73371 55.3215,35.82833 55.3907,35.92483 C56.3461,37.25328 56.8513,38.80614 56.8513,40.4151 C56.8513,44.60052 53.4246,48.04616 49.065,48.42198 L49.065,48.42198 L49.0836,52.468085 L60.2375,52.468085 C60.6586,52.468085 61,52.811046 61,53.234043 C61,53.65704 60.6586,54 60.2375,54 L60.2375,54 L0.7625,54 C0.34141,54 0,53.65704 0,53.234043 C0,52.811046 0.34141,52.468085 0.7625,52.468085 L0.7625,52.468085 L9.55038,52.468085 L9.52627,46.30059 C4.21181,45.94772 0,41.79424 0,36.72669 C0,34.64312 0.72787,32.61154 2.05927,30.95246 C1.63781,29.96996 1.42447,28.94033 1.42447,27.88414 C1.42447,26.07584 2.06002,24.31765 3.22387,22.88111 C2.89437,22.07439 2.72758,21.23176 2.72758,20.36893 C2.72758,16.47183 6.10447,13.30103 10.2554,13.30103 C11.46947,13.30103 12.66651,13.58532 13.73626,14.10967 C14.05855,13.52585 14.43291,12.96546 14.86875,12.44195 C14.40857,11.36631 14.17587,10.23907 14.17587,9.08415 C14.17587,4.07513 18.52413,0 23.86871,0 Z M18.72467,42.1444 C16.96088,44.56087 14.13557,46.06437 11.05122,46.28928 L11.05122,46.28928 L11.07538,52.468085 L23.17988,52.468085 L23.14809,43.08048 C21.58898,43.00166 20.09665,42.6852 18.72467,42.1444 Z M48.2747,22.5288 C45.6245,22.5288 43.4685,24.51213 43.4685,26.95026 C43.4685,27.58232 43.6159,28.19905 43.9063,28.7825 C44.0478,29.06711 43.9997,29.4097 43.7853,29.64382 C42.88914,30.62184 42.39582,31.86203 42.39582,33.13626 C42.39582,33.92316 42.5816,34.68987 42.94759,35.41543 C43.0902,35.69743 43.0455,36.03815 42.83515,36.2734 C41.79565,37.43654 41.22303,38.90712 41.22303,40.4151 C41.22303,44.00628 44.3862,46.92761 48.2747,46.92761 C52.1631,46.92761 55.3263,44.00628 55.3263,40.4151 C55.3263,39.1304 54.9208,37.88759 54.1543,36.82131 C54.0172,36.63094 53.8706,36.44806 53.7142,36.27302 C53.5042,36.03777 53.4595,35.69743 53.6017,35.41543 C53.9681,34.68949 54.1539,33.92242 54.1539,33.13626 C54.1539,31.86203 53.6606,30.62184 52.7644,29.64383 C52.55,29.4097 52.5019,29.06711 52.6434,28.78287 C52.9338,28.1983 53.0812,27.58195 53.0812,26.95026 C53.0812,26.87733 53.0794,26.8044 53.0753,26.73221 C52.9498,24.37413 50.8414,22.5288 48.2747,22.5288 Z M10.2554,14.83295 C6.94553,14.83295 4.25258,17.31632 4.25258,20.36893 C4.25258,21.16182 4.43724,21.936 4.80174,22.66905 C4.94322,22.95367 4.89519,23.29625 4.68074,23.53 C3.56417,24.74813 2.94948,26.29463 2.94948,27.88414 C2.94948,28.8659 3.18105,29.8226 3.63788,30.72731 C3.78011,31.00931 3.73543,31.35003 3.52507,31.58527 C2.23538,33.02892 1.525,34.8548 1.525,36.72669 C1.525,41.18031 5.44138,44.80327 10.2554,44.80327 C13.05404,44.80327 15.6548,43.55939 17.2994,41.47577 C13.28949,39.33171 10.57522,35.2987 10.57522,30.67682 C10.57522,27.93351 11.55106,25.26051 13.3337,23.09392 C12.75065,21.7864 12.45578,20.41307 12.45578,19.00457 C12.45578,17.80192 12.67563,16.61684 13.09318,15.49629 C12.22457,15.06539 11.24771,14.83295 10.2554,14.83295 Z M23.86871,1.53192 C19.36482,1.53192 15.70087,4.92001 15.70087,9.08415 C15.70087,10.16988 15.9533,11.22793 16.45146,12.22989 C16.59294,12.51413 16.54491,12.85672 16.33046,13.09084 C14.81514,14.74468 13.98078,16.84471 13.98078,19.00457 C13.98078,20.33939 14.29539,21.63942 14.91603,22.86877 C15.05826,23.15076 15.01358,23.49148 14.80322,23.72673 C13.06005,25.67678 12.10022,28.14482 12.10022,30.67682 C12.10022,36.69041 17.37964,41.58274 23.86871,41.58274 C30.35778,41.58274 35.63719,36.69041 35.63719,30.67682 C35.63719,28.51995 34.95698,26.43339 33.67026,24.64304 C33.44277,24.32663 33.19518,24.01845 32.93494,23.7271 C32.72458,23.49186 32.67953,23.15076 32.82175,22.86877 C33.44203,21.63905 33.75663,20.33901 33.75663,19.00457 C33.75663,16.84471 32.92228,14.74468 31.40696,13.09084 C31.1925,12.85672 31.14448,12.51413 31.28596,12.22951 C31.78411,11.22868 32.03654,10.17025 32.03654,9.08415 C32.03654,8.95699 32.03319,8.83058 32.02686,8.70529 C31.81278,4.68364 28.22925,1.53192 23.86871,1.53192 Z" id="path-35"></path>
        <path d="M6.5,0 C10.0841,0 13,2.9158 13,6.49982 C13,10.0842 10.0841,13 6.5,13 C2.9159,13 0,10.0842 0,6.49982 C0,2.9158 2.9159,0 6.5,0 Z M6.5,1.46992 C3.7305,1.46992 1.4771,3.72649 1.4771,6.49982 C1.4771,9.27351 3.7305,11.53008 6.5,11.53008 C9.2695,11.53008 11.5229,9.27351 11.5229,6.49982 C11.5229,3.72649 9.2695,1.46992 6.5,1.46992 Z" id="path-37"></path>
        <path d="M1,0 C1.5522,0 2,0.33835 2,0.75565 L2,0.75565 L2,3.24435 C2,3.66165 1.5522,4 1,4 C0.4478,4 0,3.66165 0,3.24435 L0,3.24435 L0,0.75565 C0,0.33835 0.4478,0 1,0 Z" id="path-39"></path>
        <path d="M0.41143,0.11092 C0.80549,-0.11728 1.308,0.01795 1.5353,0.41277 L1.5353,0.41277 L2.8898,2.76361 C3.1168,3.15803 2.9818,3.66192 2.5886,3.88972 C2.4588,3.96458 2.3174,4.00000259 2.178,4.00000259 C1.8937,4.00000259 1.6173,3.85229 1.4647,3.58787 L1.4647,3.58787 L0.11017,1.23703 C-0.11678,0.84261 0.01818,0.33872 0.41143,0.11092 Z" id="path-41"></path>
        <path d="M0.1104,0.41191 C0.33822,0.01872 0.84056,-0.11744 1.23663,0.11069 L1.23663,0.11069 L3.58772,1.46498 C3.98178,1.6923 4.11702,2.19514 3.8896,2.58873 C3.73665,2.8526 3.45972,2.99999936 3.17474,2.99999936 C3.03507,2.99999936 2.89338,2.96466 2.76337,2.88995 L2.76337,2.88995 L0.41228,1.53566 C0.01822,1.30834 -0.11702,0.80551 0.1104,0.41191 Z" id="path-43"></path>
        <path d="M3.24428,0 C3.66162,0 4,0.44775 4,1 C4,1.55225 3.66162,2 3.24428,2 L3.24428,2 L0.75572,2 C0.33838,2 0,1.55225 0,1 C0,0.44775 0.33838,0 0.75572,0 L0.75572,0 L3.24428,0 Z" id="path-45"></path>
        <path d="M2.76337,0.11086 C3.15864,-0.11725 3.66098,0.01809 3.8896,0.41206 C4.11702,0.80563 3.98178,1.30844 3.58772,1.53575 L3.58772,1.53575 L1.23663,2.88996 C1.10662,2.96466 0.96493,3.00000302 0.82526,3.00000302 C0.54028,3.00000302 0.26335,2.85261 0.1104,2.58876 C-0.11702,2.19518 0.01822,1.69238 0.41228,1.46507 L0.41228,1.46507 L2.76337,0.11086 Z" id="path-47"></path>
        <path d="M1.4647,0.41289 C1.6924,0.01844 2.1941,-0.1176 2.5885,0.11102 C2.9821,0.33883 3.1167,0.84317 2.8897,1.23722 L2.8897,1.23722 L1.5353,3.58784 C1.3827,3.85228 1.1064,4.00000178 0.82199,4.00000178 C0.68262,4.00000178 0.54083,3.96458 0.4115,3.88971 C0.01787,3.6619 -0.11669,3.15756 0.11025,2.76351 L0.11025,2.76351 L1.4647,0.41289 Z" id="path-49"></path>
        <path d="M1,0 C1.5522,0 2,0.33838 2,0.75572 L2,0.75572 L2,3.24428 C2,3.66162 1.5522,4 1,4 C0.4478,4 0,3.66162 0,3.24428 L0,3.24428 L0,0.75572 C0,0.33838 0.4478,0 1,0 Z" id="path-51"></path>
        <path d="M0.4114,0.1113 C0.8046,-0.11773 1.3078,0.01832 1.5347,0.41279 L1.5347,0.41279 L2.8895,2.76347 C3.1168,3.15754 2.9823,3.66189 2.5886,3.88931 C2.4593,3.96458 2.3175,3.99999868 2.1782,3.99999868 C1.8938,3.99999868 1.6175,3.85228 1.4653,3.58782 L1.4653,3.58782 L0.1105,1.23714 C-0.1168,0.84307 0.0177,0.33872 0.4114,0.1113 Z" id="path-53"></path>
        <path d="M0.1105,0.41206 C0.3379,0.01809 0.8423,-0.11725 1.2368,0.11086 L1.2368,0.11086 L3.5876,1.46507 C3.9821,1.69238 4.1169,2.19559 3.8895,2.58876 C3.7365,2.85261 3.4596,3.00000302 3.1746,3.00000302 C3.0349,3.00000302 2.8928,2.96466 2.7632,2.88996 L2.7632,2.88996 L0.4124,1.53575 C0.0179,1.30844 -0.1169,0.80523 0.1105,0.41206 Z" id="path-55"></path>
        <path d="M3.2443,0 C3.6616,0 4,0.44775 4,1 C4,1.55225 3.6616,2 3.2443,2 L3.2443,2 L0.7557,2 C0.3384,2 0,1.55225 0,1 C0,0.44775 0.3384,0 0.7557,0 L0.7557,0 L3.2443,0 Z" id="path-57"></path>
        <path d="M2.7632,0.11069 C3.1569,-0.11744 3.6613,0.01872 3.8895,0.41191 C4.1169,0.8051 3.9821,1.30834 3.5876,1.53566 L3.5876,1.53566 L1.2368,2.88995 C1.1072,2.96466 0.9651,2.99999936 0.8254,2.99999936 C0.5404,2.99999936 0.2635,2.8526 0.1105,2.58873 C-0.1169,2.19554 0.0179,1.6923 0.4124,1.46498 L0.4124,1.46498 L2.7632,0.11069 Z" id="path-59"></path>
        <path d="M1.4649,0.41277 C1.6918,0.01795 2.1954,-0.11728 2.5886,0.11092 C2.9821,0.33872 3.1167,0.84301 2.8898,1.23703 L2.8898,1.23703 L1.5351,3.58787 C1.3825,3.85229 1.1062,4.00000259 0.8219,4.00000259 C0.6825,4.00000259 0.5408,3.96458 0.4114,3.88972 C0.0179,3.66192 -0.1167,3.15763 0.1102,2.76361 L0.1102,2.76361 L1.4649,0.41277 Z" id="path-61"></path>
        <path d="M22.3441,0.23015 C22.6509,-0.07672 23.1111,-0.07672 23.418,0.23015 L23.418,0.23015 L27.4833,4.2961 C27.6367,4.44953 27.7901,4.60296 27.7901,4.83311 C27.7901,5.06326 27.7134,5.21669 27.56,5.37012 L27.56,5.37012 L23.4947,9.43607 C23.3413,9.5895 23.1111,9.66622 22.9577,9.66622 C22.8043,9.66622 22.5742,9.5895 22.4208,9.43607 C22.114,9.12921 22.114,8.66891 22.4208,8.36205 L22.4208,8.36205 L25.1055,5.67699 C12.3725,6.90444 2.4776,17.7214 2.4776,30.60969 C2.4776,43.49798 12.1424,54.23822 24.9521,55.5424 C25.3356,55.5424 25.6424,55.92598 25.489,56.30956 C25.4123,56.69314 25.1055,56.9999975 24.7219,56.9999975 L24.7219,56.9999975 L24.6452,56.9999975 C11.0685,55.61911 0.7901,44.26514 0.7901,30.53297 C0.7901,16.80081 11.4521,5.21669 25.1055,4.06595 L25.1055,4.06595 L22.3441,1.30417 C22.0373,0.99731 22.0373,0.53701 22.3441,0.23015 Z" id="path-63"></path>
        <path d="M3.7216,0 C17.453,1.37903 27.7901,12.71774 27.7901,26.43145 C27.7901,40.14516 17.0673,51.71371 3.3358,52.8629 L3.3358,52.8629 L6.1901,55.697581 C6.4987,56.004032 6.4987,56.46371 6.1901,56.770161 C6.0358,56.923387 5.8044,57 5.6501,57 C5.4958,57 5.2644,56.923387 5.1101,56.770161 L5.1101,56.770161 L1.0216,52.70968 C0.8673,52.55645 0.7901,52.40323 0.7901,52.17339 C0.7901,51.94355 0.8673,51.79032 1.0216,51.6371 L1.0216,51.6371 L5.033,47.57661 C5.3416,47.27016 5.8044,47.27016 6.113,47.57661 C6.4216,47.88306 6.4216,48.34274 6.113,48.64919 L6.113,48.64919 L3.413,51.33065 C16.2187,50.10484 26.1701,39.30242 26.1701,26.43145 C26.1701,13.56048 16.4501,2.83468 3.5673,1.53226 C3.1044,1.45565 2.7958,1.07258 2.873,0.68952 C2.9501,0.22984 3.3358,0 3.7216,0 Z" id="path-65"></path>
    </defs>
    <g id="Page-1" stroke="none" stroke-width="1" fill="none" fill-rule="evenodd">
        <g id="5-Écolo-Portfolio" transform="translate(-92.000000, -1838.000000)">
            <g id="Group-2" transform="translate(80.000000, 1804.176025)">
                <g id="Illustrations" transform="translate(12.000000, 33.823975)">
                    <g id="Sun" transform="translate(223.000000, 2.000000)">
                        <g id="Group-3" transform="translate(13.000000, 13.000000)">
                            <mask id="mask-2" fill="white">
                                <use xlink:href="#path-1"></use>
                            </mask>
                            <g id="Clip-2"></g>
                            <polygon id="Fill-1" fill="#000000" mask="url(#mask-2)" points="-5 -5 39 -5 39 39 -5 39"></polygon>
                        </g>
                        <g id="Group-6" transform="translate(29.000000, 0.000000)">
                            <mask id="mask-4" fill="white">
                                <use xlink:href="#path-3"></use>
                            </mask>
                            <g id="Clip-5"></g>
                            <polygon id="Fill-4" fill="#000000" mask="url(#mask-4)" points="-5 -5 7 -5 7 14 -5 14"></polygon>
                        </g>
                        <g id="Group-9" transform="translate(29.000000, 51.000000)">
                            <mask id="mask-6" fill="white">
                                <use xlink:href="#path-5"></use>
                            </mask>
                            <g id="Clip-8"></g>
                            <polygon id="Fill-7" fill="#000000" mask="url(#mask-6)" points="-5 -5 7 -5 7 14 -5 14"></polygon>
                        </g>
                        <g id="Group-12" transform="translate(40.000000, 3.000000)">
                            <mask id="mask-8" fill="white">
                                <use xlink:href="#path-7"></use>
                            </mask>
                            <g id="Clip-11"></g>
                            <polygon id="Fill-10" fill="#000000" mask="url(#mask-8)" points="-5 -5 10 -5 10 13 -5 13"></polygon>
                        </g>
                        <g id="Group-15" transform="translate(47.000000, 14.000000)">
                            <mask id="mask-10" fill="white">
                                <use xlink:href="#path-9"></use>
                            </mask>
                            <g id="Clip-14"></g>
                            <polygon id="Fill-13" fill="#000000" mask="url(#mask-10)" points="-5 -5 13 -5 13 10 -5 10"></polygon>
                        </g>
                        <g id="Group-18" transform="translate(51.000000, 28.000000)">
                            <mask id="mask-12" fill="white">
                                <use xlink:href="#path-11"></use>
                            </mask>
                            <g id="Clip-17"></g>
                            <polygon id="Fill-16" fill="#000000" mask="url(#mask-12)" points="-5 -5 14 -5 14 7 -5 7"></polygon>
                        </g>
                        <g id="Group-21" transform="translate(48.000000, 39.000000)">
                            <mask id="mask-14" fill="white">
                                <use xlink:href="#path-13"></use>
                            </mask>
                            <g id="Clip-20"></g>
                            <polygon id="Fill-19" fill="#000000" mask="url(#mask-14)" points="-5 -5 13 -5 13 10 -5 10"></polygon>
                        </g>
                        <g id="Group-24" transform="translate(40.000000, 47.000000)">
                            <mask id="mask-16" fill="white">
                                <use xlink:href="#path-15"></use>
                            </mask>
                            <g id="Clip-23"></g>
                            <polygon id="Fill-22" fill="#000000" mask="url(#mask-16)" points="-5 -5 10 -5 10 13 -5 13"></polygon>
                        </g>
                        <g id="Group-27" transform="translate(15.000000, 48.000000)">
                            <mask id="mask-18" fill="white">
                                <use xlink:href="#path-17"></use>
                            </mask>
                            <g id="Clip-26"></g>
                            <polygon id="Fill-25" fill="#000000" mask="url(#mask-18)" points="-5 -5 10 -5 10 13 -5 13"></polygon>
                        </g>
                        <g id="Group-30" transform="translate(4.000000, 40.000000)">
                            <mask id="mask-20" fill="white">
                                <use xlink:href="#path-19"></use>
                            </mask>
                            <g id="Clip-29"></g>
                            <polygon id="Fill-28" fill="#000000" mask="url(#mask-20)" points="-5 -5 13 -5 13 11 -5 11"></polygon>
                        </g>
                        <g id="Group-33" transform="translate(0.000000, 30.000000)">
                            <mask id="mask-22" fill="white">
                                <use xlink:href="#path-21"></use>
                            </mask>
                            <g id="Clip-32"></g>
                            <polygon id="Fill-31" fill="#000000" mask="url(#mask-22)" points="-5 -5 14 -5 14 7 -5 7"></polygon>
                        </g>
                        <g id="Group-36" transform="translate(3.000000, 16.000000)">
                            <mask id="mask-24" fill="white">
                                <use xlink:href="#path-23"></use>
                            </mask>
                            <g id="Clip-35"></g>
                            <polygon id="Fill-34" fill="#000000" mask="url(#mask-24)" points="-5 -5 13 -5 13 10 -5 10"></polygon>
                        </g>
                        <g id="Group-39" transform="translate(13.000000, 4.000000)">
                            <mask id="mask-26" fill="white">
                                <use xlink:href="#path-25"></use>
                            </mask>
                            <g id="Clip-38"></g>
                            <polygon id="Fill-37" fill="#000000" mask="url(#mask-26)" points="-5 -5 11 -5 11 13 -5 13"></polygon>
                        </g>
                    </g>
                    <g id="Group-42" transform="translate(291.000000, 2.000000)">
                        <mask id="mask-28" fill="white">
                            <use xlink:href="#path-27"></use>
                        </mask>
                        <g id="Clip-41"></g>
                        <polygon id="Fill-40" fill="#000000" mask="url(#mask-28)" points="-4.4506 -5 46.5494 -5 46.5494 66 -4.4506 66"></polygon>
                    </g>
                    <g id="Group-45" transform="translate(173.000000, 1.000000)">
                        <mask id="mask-30" fill="white">
                            <use xlink:href="#path-29"></use>
                        </mask>
                        <g id="Clip-44"></g>
                        <polygon id="Fill-43" fill="#000000" mask="url(#mask-30)" points="-5 -5 47 -5 47 66 -5 66"></polygon>
                    </g>
                    <g id="Group-48" transform="translate(114.000000, 0.000000)">
                        <mask id="mask-32" fill="white">
                            <use xlink:href="#path-31"></use>
                        </mask>
                        <g id="Clip-47"></g>
                        <polygon id="Fill-46" fill="#000000" mask="url(#mask-32)" points="-5 -5 56 -5 56 66 -5 66"></polygon>
                    </g>
                    <g id="Group-51">
                        <mask id="mask-34" fill="white">
                            <use xlink:href="#path-33"></use>
                        </mask>
                        <g id="Clip-50"></g>
                        <polygon id="Fill-49" fill="#000000" mask="url(#mask-34)" points="-5 -5 42 -5 42 66 -5 66"></polygon>
                    </g>
                    <g id="Forest" transform="translate(45.000000, 0.000000)">
                        <g id="Group-54" transform="translate(0.000000, 7.000000)">
                            <mask id="mask-36" fill="white">
                                <use xlink:href="#path-35"></use>
                            </mask>
                            <g id="Clip-53"></g>
                            <polygon id="Fill-52" fill="#000000" mask="url(#mask-36)" points="-5 -5 66 -5 66 59 -5 59"></polygon>
                        </g>
                        <g id="Group-57" transform="translate(42.000000, 6.000000)">
                            <mask id="mask-38" fill="white">
                                <use xlink:href="#path-37"></use>
                            </mask>
                            <g id="Clip-56"></g>
                            <polygon id="Fill-55" fill="#000000" mask="url(#mask-38)" points="-5 -5 18 -5 18 18 -5 18"></polygon>
                        </g>
                        <g id="Group-60" transform="translate(47.000000, 0.000000)">
                            <mask id="mask-40" fill="white">
                                <use xlink:href="#path-39"></use>
                            </mask>
                            <g id="Clip-59"></g>
                            <polygon id="Fill-58" fill="#000000" mask="url(#mask-40)" points="-5 -5 7 -5 7 9 -5 9"></polygon>
                        </g>
                        <g id="Group-63" transform="translate(42.000000, 1.000000)">
                            <mask id="mask-42" fill="white">
                                <use xlink:href="#path-41"></use>
                            </mask>
                            <g id="Clip-62"></g>
                            <polygon id="Fill-61" fill="#000000" mask="url(#mask-42)" points="-5 -5 8 -5 8 9 -5 9"></polygon>
                        </g>
                        <g id="Group-66" transform="translate(37.000000, 6.000000)">
                            <mask id="mask-44" fill="white">
                                <use xlink:href="#path-43"></use>
                            </mask>
                            <g id="Clip-65"></g>
                            <polygon id="Fill-64" fill="#000000" mask="url(#mask-44)" points="-5 -5 9 -5 9 8 -5 8"></polygon>
                        </g>
                        <g id="Group-69" transform="translate(36.000000, 11.000000)">
                            <mask id="mask-46" fill="white">
                                <use xlink:href="#path-45"></use>
                            </mask>
                            <g id="Clip-68"></g>
                            <polygon id="Fill-67" fill="#000000" mask="url(#mask-46)" points="-5 -5 9 -5 9 7 -5 7"></polygon>
                        </g>
                        <g id="Group-72" transform="translate(37.000000, 16.000000)">
                            <mask id="mask-48" fill="white">
                                <use xlink:href="#path-47"></use>
                            </mask>
                            <g id="Clip-71"></g>
                            <polygon id="Fill-70" fill="#000000" mask="url(#mask-48)" points="-5 -5 9 -5 9 8 -5 8"></polygon>
                        </g>
                        <g id="Group-75" transform="translate(42.000000, 20.000000)">
                            <mask id="mask-50" fill="white">
                                <use xlink:href="#path-49"></use>
                            </mask>
                            <g id="Clip-74"></g>
                            <polygon id="Fill-73" fill="#000000" mask="url(#mask-50)" points="-5 -5 8 -5 8 9 -5 9"></polygon>
                        </g>
                        <g id="Group-78" transform="translate(47.000000, 21.000000)">
                            <mask id="mask-52" fill="white">
                                <use xlink:href="#path-51"></use>
                            </mask>
                            <g id="Clip-77"></g>
                            <polygon id="Fill-76" fill="#000000" mask="url(#mask-52)" points="-5 -5 7 -5 7 9 -5 9"></polygon>
                        </g>
                        <g id="Group-81" transform="translate(52.000000, 20.000000)">
                            <mask id="mask-54" fill="white">
                                <use xlink:href="#path-53"></use>
                            </mask>
                            <g id="Clip-80"></g>
                            <polygon id="Fill-79" fill="#000000" mask="url(#mask-54)" points="-5 -5 8 -5 8 9 -5 9"></polygon>
                        </g>
                        <g id="Group-84" transform="translate(56.000000, 16.000000)">
                            <mask id="mask-56" fill="white">
                                <use xlink:href="#path-55"></use>
                            </mask>
                            <g id="Clip-83"></g>
                            <polygon id="Fill-82" fill="#000000" mask="url(#mask-56)" points="-5 -5 9 -5 9 8 -5 8"></polygon>
                        </g>
                        <g id="Group-87" transform="translate(57.000000, 11.000000)">
                            <mask id="mask-58" fill="white">
                                <use xlink:href="#path-57"></use>
                            </mask>
                            <g id="Clip-86"></g>
                            <polygon id="Fill-85" fill="#000000" mask="url(#mask-58)" points="-5 -5 9 -5 9 7 -5 7"></polygon>
                        </g>
                        <g id="Group-90" transform="translate(56.000000, 6.000000)">
                            <mask id="mask-60" fill="white">
                                <use xlink:href="#path-59"></use>
                            </mask>
                            <g id="Clip-89"></g>
                            <polygon id="Fill-88" fill="#000000" mask="url(#mask-60)" points="-5 -5 9 -5 9 8 -5 8"></polygon>
                        </g>
                        <g id="Group-93" transform="translate(52.000000, 1.000000)">
                            <mask id="mask-62" fill="white">
                                <use xlink:href="#path-61"></use>
                            </mask>
                            <g id="Clip-92"></g>
                            <polygon id="Fill-91" fill="#000000" mask="url(#mask-62)" points="-5 -5 8 -5 8 9 -5 9"></polygon>
                        </g>
                    </g>
                    <g id="cycle" transform="translate(341.000000, 0.000000)">
                        <g id="Group-96">
                            <mask id="mask-64" fill="white">
                                <use xlink:href="#path-63"></use>
                            </mask>
                            <g id="Clip-95"></g>
                            <polygon id="Fill-94" fill="#000000" mask="url(#mask-64)" points="-4.2099 -5 32.7901 -5 32.7901 62 -4.2099 62"></polygon>
                        </g>
                        <g id="Group-99" transform="translate(27.000000, 4.000000)">
                            <mask id="mask-66" fill="white">
                                <use xlink:href="#path-65"></use>
                            </mask>
                            <g id="Clip-98"></g>
                            <polygon id="Fill-97" fill="#000000" mask="url(#mask-66)" points="-4.2099 -5 32.7901 -5 32.7901 62 -4.2099 62"></polygon>
                        </g>
                    </g>
                </g>
            </g>
        </g>
    </g>
</svg>